<svg width="26" height="26" viewBox="0 0 26 26" fill="none" xmlns="http://www.w3.org/2000/svg">
<path d="M19.5435 14.6791C19.0885 15.1233 18.8285 15.7625 18.8935 16.445C18.991 17.615 20.0635 18.4708 21.2335 18.4708H23.2918V19.76C23.2918 22.0025 21.461 23.8333 19.2185 23.8333H6.78183C4.53933 23.8333 2.7085 22.0025 2.7085 19.76V12.4692C2.7085 10.2267 4.53933 8.39581 6.78183 8.39581H19.2185C21.461 8.39581 23.2918 10.2267 23.2918 12.4692V14.0292H21.1035C20.4968 14.0292 19.9443 14.2675 19.5435 14.6791Z" stroke="#398860" stroke-width="1.5" stroke-linecap="round" stroke-linejoin="round"/>
<path d="M2.7085 13.4442V8.49338C2.7085 7.20422 3.49933 6.05584 4.70183 5.60084L13.3035 2.35084C14.6468 1.84167 16.0877 2.83837 16.0877 4.2792V8.39586" stroke="#398860" stroke-width="1.5" stroke-linecap="round" stroke-linejoin="round"/>
<path d="M24.4389 15.1343V17.366C24.4389 17.9619 23.9622 18.4493 23.3555 18.471H21.2322C20.0622 18.471 18.9897 17.6152 18.8922 16.4452C18.8272 15.7627 19.0872 15.1235 19.5422 14.6793C19.943 14.2677 20.4955 14.0294 21.1022 14.0294H23.3555C23.9622 14.051 24.4389 14.5385 24.4389 15.1343Z" stroke="#398860" stroke-width="1.5" stroke-linecap="round" stroke-linejoin="round"/>
<path d="M7.5835 13H15.1668" stroke="#398860" stroke-width="1.5" stroke-linecap="round" stroke-linejoin="round"/>
</svg>
