<svg width="26" height="26" viewBox="0 0 26 26" fill="none" xmlns="http://www.w3.org/2000/svg">
<path d="M16.2498 2.16669V13C16.2498 14.1917 15.2748 15.1667 14.0832 15.1667H2.1665V6.50002C2.1665 4.10585 4.10567 2.16669 6.49984 2.16669H16.2498Z" stroke="#398860" stroke-width="1.5" stroke-linecap="round" stroke-linejoin="round"/>
<path d="M23.8332 15.1667V18.4167C23.8332 20.215 22.3815 21.6667 20.5832 21.6667H19.4998C19.4998 20.475 18.5248 19.5 17.3332 19.5C16.1415 19.5 15.1665 20.475 15.1665 21.6667H10.8332C10.8332 20.475 9.85817 19.5 8.6665 19.5C7.47484 19.5 6.49984 20.475 6.49984 21.6667H5.4165C3.61817 21.6667 2.1665 20.215 2.1665 18.4167V15.1667H14.0832C15.2748 15.1667 16.2498 14.1917 16.2498 13V5.41669H18.2432C19.0232 5.41669 19.7382 5.8392 20.1282 6.51086L21.9807 9.75002H20.5832C19.9873 9.75002 19.4998 10.2375 19.4998 10.8334V14.0834C19.4998 14.6792 19.9873 15.1667 20.5832 15.1667H23.8332Z" stroke="#398860" stroke-width="1.5" stroke-linecap="round" stroke-linejoin="round"/>
<path d="M8.66667 23.8333C9.86328 23.8333 10.8333 22.8633 10.8333 21.6667C10.8333 20.47 9.86328 19.5 8.66667 19.5C7.47005 19.5 6.5 20.47 6.5 21.6667C6.5 22.8633 7.47005 23.8333 8.66667 23.8333Z" stroke="#398860" stroke-width="1.5" stroke-linecap="round" stroke-linejoin="round"/>
<path d="M17.3332 23.8333C18.5298 23.8333 19.4998 22.8633 19.4998 21.6667C19.4998 20.47 18.5298 19.5 17.3332 19.5C16.1366 19.5 15.1665 20.47 15.1665 21.6667C15.1665 22.8633 16.1366 23.8333 17.3332 23.8333Z" stroke="#398860" stroke-width="1.5" stroke-linecap="round" stroke-linejoin="round"/>
<path d="M23.8333 13V15.1667H20.5833C19.9875 15.1667 19.5 14.6792 19.5 14.0833V10.8333C19.5 10.2375 19.9875 9.75 20.5833 9.75H21.9808L23.8333 13Z" stroke="#398860" stroke-width="1.5" stroke-linecap="round" stroke-linejoin="round"/>
</svg>
