<svg width="26" height="26" viewBox="0 0 26 26" fill="none" xmlns="http://www.w3.org/2000/svg">
<path d="M21.6662 12.7293H4.33289C4.08373 12.7293 3.85623 12.6209 3.70456 12.4259C3.55289 12.2418 3.48789 11.9818 3.54206 11.7434L4.76623 5.89342C5.16706 3.99758 5.97956 2.25342 9.19706 2.25342H16.8129C20.0304 2.25342 20.8429 4.00842 21.2437 5.89342L22.4679 11.7543C22.5221 11.9926 22.4571 12.2418 22.3054 12.4368C22.1429 12.6209 21.9154 12.7293 21.6662 12.7293ZM5.32956 11.1043H20.6587L19.6404 6.22925C19.3371 4.81008 18.9796 3.87842 16.8021 3.87842H9.19706C7.01956 3.87842 6.66206 4.81008 6.35873 6.22925L5.32956 11.1043Z" fill="#398860"/>
<path d="M21.6229 24.6459H19.5862C17.8312 24.6459 17.4954 23.6384 17.2787 22.9776L17.0621 22.3276C16.7804 21.5042 16.7479 21.3959 15.7729 21.3959H10.2262C9.25123 21.3959 9.18623 21.5801 8.93706 22.3276L8.7204 22.9776C8.4929 23.6492 8.1679 24.6459 6.4129 24.6459H4.37623C3.5204 24.6459 2.69706 24.2884 2.1229 23.6601C1.55956 23.0426 1.28873 22.2192 1.36456 21.3959L1.97123 14.7984C2.13373 13.0109 2.6104 11.1042 6.0879 11.1042H19.9112C23.3887 11.1042 23.8546 13.0109 24.0279 14.7984L24.6346 21.3959C24.7104 22.2192 24.4396 23.0426 23.8762 23.6601C23.3021 24.2884 22.4787 24.6459 21.6229 24.6459ZM10.2262 19.7709H15.7729C17.7446 19.7709 18.2104 20.6484 18.6004 21.7967L18.8279 22.4684C19.0121 23.0209 19.0121 23.0317 19.5971 23.0317H21.6337C22.0346 23.0317 22.4137 22.8692 22.6846 22.5767C22.9446 22.2951 23.0637 21.9376 23.0312 21.5584L22.4246 14.9609C22.2837 13.4984 22.1104 12.7401 19.9329 12.7401H6.0879C3.89956 12.7401 3.72623 13.4984 3.59623 14.9609L2.98956 21.5584C2.95706 21.9376 3.07623 22.2951 3.33623 22.5767C3.59623 22.8692 3.98623 23.0317 4.38706 23.0317H6.42373C7.00873 23.0317 7.00873 23.0209 7.1929 22.4792L7.40956 21.8184C7.6804 20.9517 8.08123 19.7709 10.2262 19.7709Z" fill="#398860"/>
<path d="M4.33291 9.47925H3.24957C2.80541 9.47925 2.43707 9.11091 2.43707 8.66675C2.43707 8.22258 2.80541 7.85425 3.24957 7.85425H4.33291C4.77707 7.85425 5.14541 8.22258 5.14541 8.66675C5.14541 9.11091 4.77707 9.47925 4.33291 9.47925Z" fill="#398860"/>
<path d="M22.7496 9.47925H21.6662C21.2221 9.47925 20.8537 9.11091 20.8537 8.66675C20.8537 8.22258 21.2221 7.85425 21.6662 7.85425H22.7496C23.1937 7.85425 23.5621 8.22258 23.5621 8.66675C23.5621 9.11091 23.1937 9.47925 22.7496 9.47925Z" fill="#398860"/>
<path d="M12.9996 6.22923C12.5554 6.22923 12.1871 5.86089 12.1871 5.41673V3.25006C12.1871 2.80589 12.5554 2.43756 12.9996 2.43756C13.4437 2.43756 13.8121 2.80589 13.8121 3.25006V5.41673C13.8121 5.86089 13.4437 6.22923 12.9996 6.22923Z" fill="#398860"/>
<path d="M14.6246 6.22925H11.3746C10.9304 6.22925 10.5621 5.86091 10.5621 5.41675C10.5621 4.97258 10.9304 4.60425 11.3746 4.60425H14.6246C15.0687 4.60425 15.4371 4.97258 15.4371 5.41675C15.4371 5.86091 15.0687 6.22925 14.6246 6.22925Z" fill="#398860"/>
<path d="M9.74957 17.0626H6.49957C6.05541 17.0626 5.68707 16.6942 5.68707 16.2501C5.68707 15.8059 6.05541 15.4376 6.49957 15.4376H9.74957C10.1937 15.4376 10.5621 15.8059 10.5621 16.2501C10.5621 16.6942 10.1937 17.0626 9.74957 17.0626Z" fill="#398860"/>
<path d="M19.4996 17.0626H16.2496C15.8054 17.0626 15.4371 16.6942 15.4371 16.2501C15.4371 15.8059 15.8054 15.4376 16.2496 15.4376H19.4996C19.9437 15.4376 20.3121 15.8059 20.3121 16.2501C20.3121 16.6942 19.9437 17.0626 19.4996 17.0626Z" fill="#398860"/>
</svg>
