<svg width="26" height="26" viewBox="0 0 26 26" fill="none" xmlns="http://www.w3.org/2000/svg">
<path d="M19.8142 24.6459H6.18583C2.5025 24.6459 2.3075 22.62 2.145 20.9842L1.71166 15.5567C1.61416 14.5059 1.9175 13.455 2.58916 12.61C3.39083 11.635 4.52833 11.1042 5.7525 11.1042H20.2475C21.45 11.1042 22.5875 11.635 23.3567 12.5559L23.5408 12.805C24.1258 13.6067 24.3858 14.5817 24.2883 15.5675L23.855 20.9734C23.6925 22.62 23.4975 24.6459 19.8142 24.6459ZM5.7525 12.7292C5.02666 12.7292 4.33333 13.0542 3.87833 13.6175L3.8025 13.6934C3.45583 14.1375 3.27166 14.7659 3.33666 15.4159L3.77 20.8434C3.92166 22.425 3.98666 23.0209 6.18583 23.0209H19.8142C22.0242 23.0209 22.0783 22.425 22.23 20.8325L22.6633 15.405C22.7283 14.7659 22.5442 14.1267 22.1217 13.6284L22.0133 13.4984C21.5258 12.9892 20.9083 12.7292 20.2367 12.7292H5.7525Z" fill="#398860"/>
<path d="M22.2083 13.2383C21.7642 13.2383 21.3958 12.87 21.3958 12.4258V10.4867C21.3958 7.25833 20.8325 6.69499 17.6042 6.69499H14.8417C13.6175 6.69499 13.195 6.26166 12.7292 5.64416L11.3317 3.79166C10.855 3.16332 10.7467 3.01166 9.77166 3.01166H8.39583C5.1675 3.01166 4.60416 3.57499 4.60416 6.80332V12.3825C4.60416 12.8267 4.23583 13.195 3.79166 13.195C3.3475 13.195 2.97916 12.8267 2.97916 12.3825V6.80332C2.97916 2.65416 4.24666 1.38666 8.39583 1.38666H9.7825C11.4508 1.38666 11.9708 1.92832 12.6425 2.81666L14.0292 4.65832C14.3217 5.04832 14.3433 5.06999 14.8525 5.06999H17.615C21.7642 5.06999 23.0317 6.33749 23.0317 10.4867V12.4258C23.0208 12.87 22.6525 13.2383 22.2083 13.2383Z" fill="#398860"/>
<path d="M15.7842 19.2292H10.2158C9.77167 19.2292 9.40334 18.8609 9.40334 18.4167C9.40334 17.9725 9.77167 17.6042 10.2158 17.6042H15.7842C16.2283 17.6042 16.5967 17.9725 16.5967 18.4167C16.5967 18.8609 16.2392 19.2292 15.7842 19.2292Z" fill="#398860"/>
</svg>
