<svg width="24" height="24" viewBox="0 0 24 24" fill="none" xmlns="http://www.w3.org/2000/svg">
<path d="M8.92031 21.5024V18.1801C8.92029 17.335 9.6092 16.6484 10.4628 16.6427H13.5893C14.447 16.6427 15.1422 17.331 15.1422 18.1801V18.1801V21.5127C15.142 22.2302 15.7204 22.8165 16.445 22.8334H18.5293C20.6072 22.8334 22.2917 21.1658 22.2917 19.1087V19.1087V9.65768C22.2806 8.84842 21.8968 8.08848 21.2495 7.59414L14.1209 1.9091C12.872 0.919217 11.0967 0.919217 9.84786 1.9091L2.75052 7.60446C2.10078 8.09679 1.71633 8.85799 1.70833 9.66799V19.1087C1.70833 21.1658 3.39278 22.8334 5.47065 22.8334H7.55504C8.29755 22.8334 8.89947 22.2375 8.89947 21.5024V21.5024" stroke="#398860" stroke-width="1.5" stroke-linecap="round" stroke-linejoin="round"/>
</svg>
