<svg width="110" height="72" viewBox="0 0 110 72" fill="none" xmlns="http://www.w3.org/2000/svg">
<g clip-path="url(#clip0_181_264)">
<path d="M1.01562 68.339V56.8013H8.76978V58.8125H3.48622V61.0658H5.38623C6.31054 61.0658 7.10748 61.2141 7.77694 61.5112C8.45022 61.8041 8.96945 62.219 9.33461 62.756C9.69977 63.2929 9.88239 63.9263 9.88239 64.6548C9.88239 65.3797 9.69977 66.0198 9.33461 66.5757C8.96945 67.1279 8.45022 67.5599 7.77694 67.8717C7.10748 68.1834 6.31054 68.339 5.38623 68.339H1.01562ZM3.48622 66.3786H5.38623C5.82748 66.3786 6.20023 66.2999 6.50458 66.1418C6.80887 65.9801 7.03901 65.7684 7.19499 65.5054C7.35473 65.2388 7.43458 64.9477 7.43458 64.6323C7.43458 64.174 7.25771 63.7872 6.90398 63.4717C6.55402 63.1526 6.0481 62.9927 5.38623 62.9927H3.48622V66.3786ZM10.8481 68.339V66.3786L11.179 66.3505C11.6051 66.3163 11.9493 66.1571 12.2117 65.8715C12.4742 65.5823 12.6701 65.1222 12.7994 64.4913C12.9326 63.8567 13.0182 63.0037 13.0562 61.9335L13.2502 56.8013H21.1812V68.339H18.7791V58.7561H15.5439L15.3613 62.7731C15.3004 64.0648 15.1445 65.1204 14.8934 65.9392C14.6462 66.7581 14.2506 67.3628 13.7067 67.7533C13.1665 68.1438 12.4267 68.339 11.4871 68.339H10.8481ZM25.2323 68.339H22.5848L26.6188 56.8013H29.8026L33.8309 68.339H31.1834L28.2563 59.4378H28.1651L25.2323 68.339ZM25.0668 63.8037H31.3203V65.708H25.0668V63.8037ZM35.2373 68.339V56.8013H42.9915V58.8125H37.7079V61.0658H39.608C40.5323 61.0658 41.3292 61.2141 41.9987 61.5112C42.672 61.8041 43.1912 62.219 43.5564 62.756C43.9215 63.2929 44.1041 63.9263 44.1041 64.6548C44.1041 65.3797 43.9215 66.0198 43.5564 66.5757C43.1912 67.1279 42.672 67.5599 41.9987 67.8717C41.3292 68.1834 40.5323 68.339 39.608 68.339H35.2373ZM37.7079 66.3786H39.608C40.0492 66.3786 40.422 66.2999 40.7263 66.1418C41.0306 65.9801 41.2607 65.7684 41.4167 65.5054C41.5764 65.2388 41.6563 64.9477 41.6563 64.6323C41.6563 64.174 41.4795 63.7872 41.1257 63.4717C40.7757 63.1526 40.2698 62.9927 39.608 62.9927H37.7079V66.3786ZM45.0698 68.339V66.3786L45.4007 66.3505C45.8267 66.3163 46.171 66.1571 46.4335 65.8715C46.6959 65.5823 46.8918 65.1222 47.0212 64.4913C47.1543 63.8567 47.2399 63.0037 47.2779 61.9335L47.4719 56.8013H55.4029V68.339H53.0008V58.7561H49.7656L49.5831 62.7731C49.5222 64.0648 49.3662 65.1204 49.1152 65.9392C48.8679 66.7581 48.4723 67.3628 47.9284 67.7533C47.3882 68.1438 46.6484 68.339 45.7088 68.339H45.0698ZM59.454 68.339H56.8065L60.8405 56.8013H64.0243L68.0523 68.339H65.4049L62.4781 59.4378H62.3867L59.454 68.339ZM59.2885 63.8037H65.5421V65.708H59.2885V63.8037ZM77.2132 56.8013V58.8125H71.9295V68.339H69.4588V56.8013H77.2132ZM78.7952 68.339V56.8013H83.4053C84.2915 56.8013 85.0467 56.9684 85.6708 57.3027C86.2944 57.6332 86.7696 58.0933 87.0971 58.6829C87.4278 59.2688 87.5934 59.9449 87.5934 60.7111C87.5934 61.4771 87.4259 62.1531 87.0916 62.7389C86.7566 63.3253 86.2715 63.7817 85.6362 64.1081C85.0047 64.4352 84.2402 64.5981 83.3423 64.5981H80.4038V62.6431H82.9431C83.4189 62.6431 83.8107 62.5626 84.1185 62.4009C84.4306 62.2361 84.6623 62.0085 84.8149 61.7193C84.9707 61.4264 85.0485 61.0902 85.0485 60.7111C85.0485 60.3279 84.9707 59.9937 84.8149 59.7083C84.6623 59.4191 84.4306 59.1956 84.1185 59.0379C83.8064 58.8763 83.4109 58.7956 82.932 58.7956H81.2659V68.339H78.7952ZM90.4589 68.4971V66.514H91.0924C91.4082 66.514 91.6628 66.4762 91.8568 66.4011C92.0508 66.3224 92.2053 66.2077 92.3191 66.0576C92.4371 65.9032 92.536 65.7117 92.6157 65.4828L92.7584 65.1051L88.5135 56.8013H91.0695L93.8195 62.4802L96.119 56.8013H98.641L94.613 66.0741C94.4189 66.5024 94.189 66.9009 93.9227 67.2688C93.6601 67.6367 93.3233 67.9333 92.9123 68.159C92.502 68.3842 91.9767 68.4971 91.3377 68.4971H90.4589ZM104.229 68.4971C103.377 68.4971 102.618 68.3525 101.952 68.0632C101.29 67.7698 100.767 67.3683 100.383 66.8575C100.002 66.3426 99.8065 65.7495 99.7953 65.0771H102.283C102.298 65.359 102.391 65.6067 102.563 65.8209C102.738 66.0314 102.969 66.1943 103.258 66.3108C103.548 66.4274 103.873 66.4853 104.234 66.4853C104.611 66.4853 104.944 66.4201 105.233 66.2883C105.522 66.1571 105.748 65.9746 105.911 65.7422C106.075 65.5091 106.157 65.2406 106.157 64.9361C106.157 64.6286 106.07 64.3559 105.895 64.1197C105.724 63.8793 105.476 63.6914 105.153 63.5559C104.833 63.4211 104.453 63.3533 104.012 63.3533H102.922V61.5619H104.012C104.384 61.5619 104.713 61.4978 104.999 61.3703C105.288 61.2428 105.512 61.0658 105.672 60.8406C105.832 60.6115 105.911 60.3448 105.911 60.0407C105.911 59.7515 105.842 59.4979 105.701 59.2801C105.564 59.0585 105.369 58.8857 105.119 58.7618C104.871 58.6379 104.582 58.5759 104.252 58.5759C103.917 58.5759 103.61 58.636 103.333 58.7561C103.055 58.8726 102.833 59.0398 102.665 59.2576C102.498 59.4754 102.408 59.7308 102.397 60.0238H100.029C100.041 59.359 100.233 58.773 100.606 58.2661C100.978 57.759 101.48 57.3628 102.112 57.0773C102.747 56.7882 103.464 56.6436 104.263 56.6436C105.069 56.6436 105.775 56.7882 106.38 57.0773C106.984 57.3665 107.454 57.7571 107.789 58.2492C108.128 58.7374 108.295 59.2857 108.291 59.8942C108.295 60.5402 108.091 61.0792 107.681 61.5112C107.273 61.9432 106.743 62.2172 106.089 62.3338V62.4234C106.948 62.5327 107.602 62.8274 108.052 63.3082C108.504 63.7853 108.728 64.3821 108.725 65.0997C108.728 65.7568 108.537 66.3407 108.149 66.8514C107.764 67.3628 107.233 67.7643 106.557 68.0571C105.879 68.35 105.103 68.4971 104.229 68.4971Z" fill="white"/>
<path d="M49.1802 28.678V12.7026H59.5848V15.1285H52.1112V18.8728H55.2318C56.4695 18.8728 57.5308 19.073 58.4156 19.4734C59.3057 19.8687 59.9877 20.4277 60.4618 21.1506C60.9358 21.8734 61.1728 22.7236 61.1728 23.7013C61.1728 24.6841 60.9358 25.55 60.4618 26.2989C59.9877 27.0425 59.3057 27.6249 58.4156 28.0461C57.5308 28.4673 56.4695 28.678 55.2318 28.678H49.1802ZM52.1112 26.3066H55.2318C55.8849 26.3066 56.4379 26.1845 56.8909 25.94C57.3438 25.6956 57.6861 25.3732 57.9179 24.9728C58.1549 24.5723 58.2734 24.1381 58.2734 23.6701C58.2734 22.9941 58.01 22.4194 57.4834 21.9462C56.9619 21.4677 56.2114 21.2285 55.2318 21.2285H52.1112V26.3066Z" fill="white"/>
<path d="M54.6911 0.915283H75.0844V21.0509C75.0844 32.1715 65.9538 41.1865 54.6911 41.1865H34.2979V21.0509C34.2979 9.93029 43.4282 0.915283 54.6911 0.915283Z" stroke="white" stroke-width="2"/>
</g>
<defs>
<clipPath id="clip0_181_264">
<rect width="110" height="72" fill="white"/>
</clipPath>
</defs>
</svg>
