<svg width="26" height="26" viewBox="0 0 26 26" fill="none" xmlns="http://www.w3.org/2000/svg">
<path d="M21.6668 8.93752V19.5C21.6668 22.75 19.7277 23.8334 17.3335 23.8334H8.66683C6.27266 23.8334 4.3335 22.75 4.3335 19.5V8.93752C4.3335 5.41669 6.27266 4.60419 8.66683 4.60419C8.66683 5.27585 8.93763 5.88252 9.3818 6.32668C9.82597 6.77085 10.4327 7.04169 11.1043 7.04169H14.896C16.2393 7.04169 17.3335 5.94752 17.3335 4.60419C19.7277 4.60419 21.6668 5.41669 21.6668 8.93752Z" stroke="#398860" stroke-width="1.5" stroke-linecap="round" stroke-linejoin="round"/>
<path d="M17.3332 4.60419C17.3332 5.94752 16.239 7.04169 14.8957 7.04169H11.104C10.4323 7.04169 9.82564 6.77085 9.38147 6.32668C8.93731 5.88252 8.6665 5.27585 8.6665 4.60419C8.6665 3.26085 9.76067 2.16669 11.104 2.16669H14.8957C15.5673 2.16669 16.174 2.43752 16.6182 2.88169C17.0624 3.32586 17.3332 3.93252 17.3332 4.60419Z" stroke="#398860" stroke-width="1.5" stroke-linecap="round" stroke-linejoin="round"/>
<path d="M8.6665 14.0833H12.9998" stroke="#398860" stroke-width="1.5" stroke-linecap="round" stroke-linejoin="round"/>
<path d="M8.6665 18.4167H17.3332" stroke="#398860" stroke-width="1.5" stroke-linecap="round" stroke-linejoin="round"/>
</svg>
