<svg width="26" height="26" viewBox="0 0 26 26" fill="none" xmlns="http://www.w3.org/2000/svg">
<path d="M5.92586 11.6459C5.15669 11.6459 4.37669 11.3642 3.78086 10.79C1.78753 8.89419 0.985859 6.82502 1.45169 4.79919C2.00419 2.41585 4.09503 1.35419 5.92586 1.35419C7.75669 1.35419 9.85836 2.42669 10.4 4.79919C10.8659 6.82502 10.0534 8.89419 8.07086 10.79C7.47503 11.3642 6.70586 11.6459 5.92586 11.6459ZM3.03336 5.16752C2.62169 6.97669 3.82419 8.58002 4.90753 9.60919C5.48169 10.1617 6.38086 10.1509 6.95503 9.60919C8.03836 8.58002 9.24086 6.97669 8.81836 5.15669C8.45003 3.55335 7.03086 2.97919 5.93669 2.97919C4.83169 2.97919 3.41253 3.55335 3.03336 5.16752Z" fill="#398860"/>
<path d="M5.9692 6.71665C5.37336 6.71665 4.88586 6.22915 4.88586 5.63332C4.88586 5.03749 5.36253 4.54999 5.9692 4.54999H5.98003C6.57586 4.54999 7.06336 5.03749 7.06336 5.63332C7.06336 6.22915 6.57586 6.71665 5.9692 6.71665Z" fill="#398860"/>
<path d="M20.0309 24.6458C19.2617 24.6458 18.4817 24.3642 17.875 23.79C15.8709 21.8942 15.0584 19.825 15.535 17.7883C16.0875 15.4158 18.1892 14.3433 20.0309 14.3433C21.8725 14.3433 23.9742 15.4158 24.5267 17.7883C24.9925 19.8142 24.18 21.8942 22.1759 23.7792C21.58 24.3642 20.8109 24.6458 20.0309 24.6458ZM20.0309 15.9792C18.9259 15.9792 17.4959 16.5533 17.1167 18.1675C16.6942 19.9767 17.9075 21.5908 18.9909 22.62C19.565 23.1725 20.475 23.1725 21.06 22.62C22.1434 21.5908 23.3567 19.9875 22.9342 18.1783C22.5767 16.5533 21.1467 15.9792 20.0309 15.9792Z" fill="#398860"/>
<path d="M20.0742 19.7167C19.4783 19.7167 18.9908 19.2292 18.9908 18.6333C18.9908 18.0375 19.4675 17.55 20.0742 17.55H20.085C20.6808 17.55 21.1683 18.0375 21.1683 18.6333C21.1683 19.2292 20.67 19.7167 20.0742 19.7167Z" fill="#398860"/>
<path d="M13 21.3959H10.0967C8.84002 21.3959 7.74585 20.6375 7.31252 19.4675C6.86835 18.2975 7.19335 17.0084 8.13585 16.1742L16.7917 8.60169C17.3117 8.14669 17.3225 7.52919 17.1709 7.10669C17.0084 6.68419 16.5967 6.22919 15.9033 6.22919H13C12.5558 6.22919 12.1875 5.86085 12.1875 5.41669C12.1875 4.97252 12.5558 4.60419 13 4.60419H15.9033C17.16 4.60419 18.2542 5.36252 18.6875 6.53252C19.1317 7.70252 18.8067 8.99169 17.8642 9.82585L9.20835 17.3984C8.68835 17.8534 8.67752 18.4709 8.82918 18.8934C8.99168 19.3159 9.40335 19.7709 10.0967 19.7709H13C13.4442 19.7709 13.8125 20.1392 13.8125 20.5834C13.8125 21.0275 13.4442 21.3959 13 21.3959Z" fill="#398860"/>
<path d="M13 21.3959H10.0967C8.84002 21.3959 7.74585 20.6375 7.31252 19.4675C6.86835 18.2975 7.19335 17.0084 8.13585 16.1742L16.7917 8.60169C17.3117 8.14669 17.3225 7.52919 17.1709 7.10669C17.0084 6.68419 16.5967 6.22919 15.9033 6.22919H13C12.5558 6.22919 12.1875 5.86085 12.1875 5.41669C12.1875 4.97252 12.5558 4.60419 13 4.60419H15.9033C17.16 4.60419 18.2542 5.36252 18.6875 6.53252C19.1317 7.70252 18.8067 8.99169 17.8642 9.82585L9.20835 17.3984C8.68835 17.8534 8.67752 18.4709 8.82918 18.8934C8.99168 19.3159 9.40335 19.7709 10.0967 19.7709H13C13.4442 19.7709 13.8125 20.1392 13.8125 20.5834C13.8125 21.0275 13.4442 21.3959 13 21.3959Z" fill="#398860"/>
</svg>
