<svg width="23" height="23" viewBox="0 0 23 23"  xmlns="http://www.w3.org/2000/svg">
<path fill-rule="evenodd" clip-rule="evenodd" d="M15.8004 12.9745C15.5757 12.7937 15.3126 12.6665 15.0312 12.6025C14.7497 12.5385 14.4573 12.5394 14.1762 12.6051C13.7539 12.7801 13.4811 13.4411 13.2082 13.7716C13.1507 13.8508 13.0661 13.9064 12.9704 13.9278C12.8747 13.9493 12.7745 13.9352 12.6885 13.8882C11.1424 13.2842 9.84652 12.1766 9.01125 10.7453C8.94 10.656 8.90628 10.5425 8.91719 10.4289C8.9281 10.3153 8.98278 10.2103 9.06972 10.1361C9.37405 9.83561 9.5975 9.46339 9.7194 9.05391C9.74647 8.60224 9.64273 8.15234 9.42055 7.75785C9.24878 7.20479 8.9219 6.71233 8.47851 6.33866C8.24982 6.23607 7.99625 6.20167 7.7484 6.23961C7.50055 6.27756 7.269 6.38623 7.08168 6.55251C6.7565 6.83236 6.49839 7.1814 6.32636 7.57393C6.15433 7.96646 6.07276 8.39248 6.08767 8.82062C6.08867 9.06104 6.11922 9.30044 6.17862 9.53345C6.32948 10.0933 6.56149 10.6282 6.86729 11.1211C7.08792 11.4988 7.32865 11.8643 7.58844 12.2163C8.43273 13.3724 9.49403 14.3539 10.7134 15.1065C11.3253 15.489 11.9793 15.7999 12.6625 16.0332C13.3721 16.3541 14.1557 16.4772 14.9299 16.3896C15.371 16.323 15.7889 16.1493 16.1469 15.8838C16.5049 15.6182 16.792 15.269 16.9829 14.8668C17.095 14.6238 17.1291 14.3521 17.0803 14.0891C16.9634 13.5512 16.2422 13.2337 15.8004 12.9745Z" />
<path d="M0 23L1.6502 16.8696C0.319355 14.4815 -0.103468 11.6948 0.45932 9.02087C1.02211 6.34692 2.53275 3.96509 4.71405 2.31244C6.89535 0.659794 9.60099 -0.152811 12.3345 0.0237414C15.068 0.200294 17.6459 1.35416 19.5953 3.27361C21.5447 5.19305 22.7348 7.74932 22.9472 10.4733C23.1595 13.1974 22.3799 15.9064 20.7514 18.1033C19.1229 20.3003 16.7548 21.8378 14.0815 22.4337C11.4082 23.0296 8.60919 22.644 6.19799 21.3475L0 23ZM6.49684 19.0535L6.88015 19.2803C8.62664 20.3128 10.6665 20.7401 12.6819 20.4956C14.6972 20.251 16.5749 19.3483 18.0222 17.9282C19.4696 16.5081 20.4053 14.6503 20.6836 12.6444C20.9618 10.6384 20.5671 8.59699 19.5607 6.83821C18.5544 5.07943 16.993 3.7021 15.12 2.92085C13.2469 2.1396 11.1674 1.99831 9.2054 2.51901C7.24344 3.03971 5.50927 4.19315 4.27313 5.79958C3.03699 7.406 2.36833 9.37518 2.37135 11.4002C2.3697 13.0793 2.83526 14.726 3.71619 16.1568L3.95658 16.5521L3.03402 19.9737L6.49684 19.0535Z" />
</svg>
